<?xml version="1.0" encoding="iso-8859-1"?>
<!-- Uploaded to: SVG Repo, www.svgrepo.com, Generator: SVG Repo Mixer Tools -->
<svg height="800px" width="800px" version="1.1" id="Layer_1" xmlns="http://www.w3.org/2000/svg" xmlns:xlink="http://www.w3.org/1999/xlink" 
	 viewBox="0 0 512.002 512.002" xml:space="preserve">
<path style="fill:#E5E5E5;" d="M467.088,320.556c19.843,0,35.93-16.086,35.93-35.93c0-19.091-14.892-34.697-33.691-35.853
	l0.066-0.706c2.165,0.408,4.395,0.63,6.678,0.63c20.179,0,36.473-16.635,35.916-36.939c-0.537-19.571-17.086-34.92-36.663-34.92
	H341.333V87.012c0-81.445-61.03-77.447-82.478-73.527c-4.262,0.779-7.347,4.501-7.347,8.833v109.606l-98.807,125.754v179.649
	l53.895,26.947h241.807c19.841,0,36.479-15.778,36.647-35.618c0.15-17.7-12.501-32.463-29.25-35.613l0.066-0.706
	c0.741,0.046,1.485,0.076,2.239,0.076c19.843,0,35.93-16.086,35.93-35.93c0-18.331-13.731-33.444-31.466-35.643l0.054-0.572
	C464.088,320.452,465.575,320.556,467.088,320.556z"/>
<g>
	<path style="fill:#CCCCCC;" d="M449.123,446.311H206.596l-53.895-26.947v17.965l53.895,26.947h242.526
		c19.843,0,35.93-16.086,35.93-35.93c0-3.097-0.4-6.1-1.136-8.967C479.921,434.867,465.859,446.311,449.123,446.311z"/>
	<path style="fill:#CCCCCC;" d="M458.105,374.451h-44.912v17.965h44.912c19.843,0,35.93-16.086,35.93-35.93
		c0-3.101-0.393-6.111-1.132-8.982C488.914,363.001,474.847,374.451,458.105,374.451z"/>
	<path style="fill:#CCCCCC;" d="M467.088,302.591h-53.895v17.965h53.895c19.843,0,35.93-16.086,35.93-35.93
		c0-3.101-0.393-6.111-1.132-8.982C497.896,291.141,483.83,302.591,467.088,302.591z"/>
	<path style="fill:#CCCCCC;" d="M476.07,230.732h-62.877v17.965h62.877c19.843,0,35.93-16.086,35.93-35.93
		c0-3.101-0.393-6.111-1.132-8.982C506.879,219.281,492.812,230.732,476.07,230.732z"/>
</g>
<path style="fill:#1C74BB;" d="M134.737,212.767H26.947C12.089,212.767,0,224.855,0,239.714v233.544
	c0,14.859,12.089,26.947,26.947,26.947h107.789c14.858,0,26.947-12.088,26.947-26.947V239.714
	C161.684,224.855,149.595,212.767,134.737,212.767z"/>
<g>
	<path style="fill:#035FA1;" d="M26.947,473.258V239.714c0-14.859,12.089-26.947,26.947-26.947H26.947
		C12.089,212.767,0,224.855,0,239.714v233.544c0,14.859,12.089,26.947,26.947,26.947h26.947
		C39.037,500.205,26.947,488.117,26.947,473.258z"/>
	<circle style="fill:#035FA1;" cx="98.807" cy="437.334" r="26.947"/>
</g>
<circle style="fill:#E5E5E5;" cx="98.807" cy="437.334" r="17.965"/>
</svg>